<svg width="42" height="49" viewBox="0 0 42 49" fill="none" xmlns="http://www.w3.org/2000/svg">
<path d="M39.1826 20.7544L7.24691 1.05132C4.65213 -0.547759 0.677414 1.00398 0.677414 4.96333V44.3609C0.677414 47.9112 4.36907 50.05 7.24691 48.271L39.1826 28.5784C42.0314 26.8231 42.0404 22.5059 39.1826 20.7544ZM29.8813 27.2718L10.8642 38.9975C8.93351 40.1951 6.4839 38.7352 6.4839 36.3891V12.9284C6.4839 10.5824 8.93351 9.12624 10.8642 10.3211L29.8813 22.0561C30.3156 22.3241 30.6754 22.7055 30.9254 23.1628C31.1754 23.6201 31.3069 24.1375 31.3069 24.664C31.3069 25.1905 31.1754 25.7079 30.9254 26.1652C30.6754 26.6225 30.3156 27.0039 29.8813 27.2718Z" fill="white" fill-opacity="0.5"/>
<path d="M10.8642 10.3241L29.8813 22.0588C30.3156 22.3268 30.6754 22.7083 30.9254 23.1657C31.1754 23.623 31.3069 24.1405 31.3069 24.667C31.3069 25.1935 31.1754 25.711 30.9254 26.1684C30.6754 26.6257 30.3156 27.0072 29.8813 27.2752L10.8642 39.0023C8.93351 40.2001 6.4839 38.74 6.4839 36.3936V12.93C6.4839 10.5855 8.93351 9.12918 10.8642 10.3241Z" fill="white"/>
</svg>
